<mxfile host="app.diagrams.net" modified="2021-07-18T02:23:54.115Z" agent="5.0 (Windows NT 10.0; Win64; x64) AppleWebKit/537.36 (KHTML, like Gecko) Chrome/91.0.4472.77 Safari/537.36" etag="WZZh7ilvOj7XsDR-auKq" version="14.9.0" type="github">
  <diagram id="sDy8H1xOpPe6I8-VxYWT" name="Page-1">
    <mxGraphModel dx="813" dy="454" grid="1" gridSize="10" guides="1" tooltips="1" connect="1" arrows="1" fold="1" page="1" pageScale="1" pageWidth="827" pageHeight="1169" math="0" shadow="0">
      <root>
        <mxCell id="0" />
        <mxCell id="1" parent="0" />
        <mxCell id="k1RtUFctcX0_6oIIP2iL-3" value="" style="edgeStyle=orthogonalEdgeStyle;rounded=0;orthogonalLoop=1;jettySize=auto;html=1;" edge="1" parent="1" source="k1RtUFctcX0_6oIIP2iL-1" target="k1RtUFctcX0_6oIIP2iL-2">
          <mxGeometry relative="1" as="geometry" />
        </mxCell>
        <mxCell id="k1RtUFctcX0_6oIIP2iL-1" value="大厅服务器" style="rounded=0;whiteSpace=wrap;html=1;" vertex="1" parent="1">
          <mxGeometry x="220" y="240" width="90" height="40" as="geometry" />
        </mxCell>
        <mxCell id="k1RtUFctcX0_6oIIP2iL-5" value="" style="edgeStyle=orthogonalEdgeStyle;rounded=0;orthogonalLoop=1;jettySize=auto;html=1;" edge="1" parent="1" source="k1RtUFctcX0_6oIIP2iL-2" target="k1RtUFctcX0_6oIIP2iL-4">
          <mxGeometry relative="1" as="geometry" />
        </mxCell>
        <mxCell id="k1RtUFctcX0_6oIIP2iL-2" value="DB服务器" style="rounded=0;whiteSpace=wrap;html=1;" vertex="1" parent="1">
          <mxGeometry x="420" y="240" width="90" height="40" as="geometry" />
        </mxCell>
        <mxCell id="k1RtUFctcX0_6oIIP2iL-4" value="MySQL" style="shape=cylinder;whiteSpace=wrap;html=1;boundedLbl=1;backgroundOutline=1;rounded=0;" vertex="1" parent="1">
          <mxGeometry x="650" y="230" width="40" height="60" as="geometry" />
        </mxCell>
        <mxCell id="k1RtUFctcX0_6oIIP2iL-6" value="游戏服务器1" style="rounded=0;whiteSpace=wrap;html=1;" vertex="1" parent="1">
          <mxGeometry x="180" y="360" width="90" height="40" as="geometry" />
        </mxCell>
        <mxCell id="k1RtUFctcX0_6oIIP2iL-7" value="游戏服务器2" style="rounded=0;whiteSpace=wrap;html=1;" vertex="1" parent="1">
          <mxGeometry x="320" y="360" width="90" height="40" as="geometry" />
        </mxCell>
        <mxCell id="k1RtUFctcX0_6oIIP2iL-10" value="" style="endArrow=classic;html=1;exitX=0.5;exitY=0;exitDx=0;exitDy=0;entryX=0.5;entryY=1;entryDx=0;entryDy=0;" edge="1" parent="1" source="k1RtUFctcX0_6oIIP2iL-6" target="k1RtUFctcX0_6oIIP2iL-1">
          <mxGeometry width="50" height="50" relative="1" as="geometry">
            <mxPoint x="290" y="370" as="sourcePoint" />
            <mxPoint x="340" y="320" as="targetPoint" />
          </mxGeometry>
        </mxCell>
        <mxCell id="k1RtUFctcX0_6oIIP2iL-11" value="" style="endArrow=classic;html=1;exitX=0.5;exitY=0;exitDx=0;exitDy=0;entryX=0.5;entryY=1;entryDx=0;entryDy=0;" edge="1" parent="1" source="k1RtUFctcX0_6oIIP2iL-7" target="k1RtUFctcX0_6oIIP2iL-1">
          <mxGeometry width="50" height="50" relative="1" as="geometry">
            <mxPoint x="320" y="390" as="sourcePoint" />
            <mxPoint x="370" y="340" as="targetPoint" />
          </mxGeometry>
        </mxCell>
        <mxCell id="k1RtUFctcX0_6oIIP2iL-12" value="游戏服务器2" style="rounded=0;whiteSpace=wrap;html=1;" vertex="1" parent="1">
          <mxGeometry x="460" y="360" width="90" height="40" as="geometry" />
        </mxCell>
        <mxCell id="k1RtUFctcX0_6oIIP2iL-13" value="" style="endArrow=classic;html=1;exitX=0.5;exitY=0;exitDx=0;exitDy=0;entryX=0.5;entryY=1;entryDx=0;entryDy=0;" edge="1" parent="1" source="k1RtUFctcX0_6oIIP2iL-12" target="k1RtUFctcX0_6oIIP2iL-1">
          <mxGeometry width="50" height="50" relative="1" as="geometry">
            <mxPoint x="380" y="340" as="sourcePoint" />
            <mxPoint x="430" y="290" as="targetPoint" />
          </mxGeometry>
        </mxCell>
        <mxCell id="k1RtUFctcX0_6oIIP2iL-16" value="用户1" style="rounded=0;whiteSpace=wrap;html=1;" vertex="1" parent="1">
          <mxGeometry x="30" y="220" width="70" height="30" as="geometry" />
        </mxCell>
        <mxCell id="k1RtUFctcX0_6oIIP2iL-17" value="用户2" style="rounded=0;whiteSpace=wrap;html=1;" vertex="1" parent="1">
          <mxGeometry x="30" y="270" width="70" height="30" as="geometry" />
        </mxCell>
        <mxCell id="k1RtUFctcX0_6oIIP2iL-18" value="用户3" style="rounded=0;whiteSpace=wrap;html=1;" vertex="1" parent="1">
          <mxGeometry x="30" y="320" width="70" height="30" as="geometry" />
        </mxCell>
        <mxCell id="k1RtUFctcX0_6oIIP2iL-19" value="用户4" style="rounded=0;whiteSpace=wrap;html=1;" vertex="1" parent="1">
          <mxGeometry x="30" y="370" width="70" height="30" as="geometry" />
        </mxCell>
        <mxCell id="k1RtUFctcX0_6oIIP2iL-20" value="" style="endArrow=none;html=1;" edge="1" parent="1">
          <mxGeometry width="50" height="50" relative="1" as="geometry">
            <mxPoint x="160" y="200" as="sourcePoint" />
            <mxPoint x="720" y="200" as="targetPoint" />
          </mxGeometry>
        </mxCell>
        <mxCell id="k1RtUFctcX0_6oIIP2iL-21" value="" style="endArrow=none;html=1;" edge="1" parent="1">
          <mxGeometry width="50" height="50" relative="1" as="geometry">
            <mxPoint x="160" y="420" as="sourcePoint" />
            <mxPoint x="720" y="420" as="targetPoint" />
          </mxGeometry>
        </mxCell>
        <mxCell id="k1RtUFctcX0_6oIIP2iL-22" value="" style="endArrow=none;html=1;" edge="1" parent="1">
          <mxGeometry width="50" height="50" relative="1" as="geometry">
            <mxPoint x="160" y="420" as="sourcePoint" />
            <mxPoint x="160" y="200" as="targetPoint" />
          </mxGeometry>
        </mxCell>
        <mxCell id="k1RtUFctcX0_6oIIP2iL-23" value="" style="endArrow=none;html=1;" edge="1" parent="1">
          <mxGeometry width="50" height="50" relative="1" as="geometry">
            <mxPoint x="720" y="420" as="sourcePoint" />
            <mxPoint x="720" y="200" as="targetPoint" />
          </mxGeometry>
        </mxCell>
        <mxCell id="k1RtUFctcX0_6oIIP2iL-24" value="" style="endArrow=classic;html=1;exitX=1;exitY=0.5;exitDx=0;exitDy=0;entryX=0;entryY=0.5;entryDx=0;entryDy=0;" edge="1" parent="1" source="k1RtUFctcX0_6oIIP2iL-16" target="k1RtUFctcX0_6oIIP2iL-1">
          <mxGeometry width="50" height="50" relative="1" as="geometry">
            <mxPoint x="130" y="280" as="sourcePoint" />
            <mxPoint x="180" y="230" as="targetPoint" />
          </mxGeometry>
        </mxCell>
        <mxCell id="k1RtUFctcX0_6oIIP2iL-28" value="登陆" style="edgeLabel;html=1;align=center;verticalAlign=middle;resizable=0;points=[];" vertex="1" connectable="0" parent="k1RtUFctcX0_6oIIP2iL-24">
          <mxGeometry x="-0.3081" y="2" relative="1" as="geometry">
            <mxPoint as="offset" />
          </mxGeometry>
        </mxCell>
        <mxCell id="k1RtUFctcX0_6oIIP2iL-25" value="" style="endArrow=classic;html=1;exitX=1;exitY=0.5;exitDx=0;exitDy=0;entryX=0;entryY=0.5;entryDx=0;entryDy=0;" edge="1" parent="1" source="k1RtUFctcX0_6oIIP2iL-17" target="k1RtUFctcX0_6oIIP2iL-1">
          <mxGeometry width="50" height="50" relative="1" as="geometry">
            <mxPoint x="120" y="350" as="sourcePoint" />
            <mxPoint x="170" y="300" as="targetPoint" />
          </mxGeometry>
        </mxCell>
        <mxCell id="k1RtUFctcX0_6oIIP2iL-29" value="登陆" style="edgeLabel;html=1;align=center;verticalAlign=middle;resizable=0;points=[];" vertex="1" connectable="0" parent="k1RtUFctcX0_6oIIP2iL-25">
          <mxGeometry x="-0.2621" y="1" relative="1" as="geometry">
            <mxPoint as="offset" />
          </mxGeometry>
        </mxCell>
        <mxCell id="k1RtUFctcX0_6oIIP2iL-26" value="" style="endArrow=classic;html=1;exitX=1;exitY=0.5;exitDx=0;exitDy=0;" edge="1" parent="1" source="k1RtUFctcX0_6oIIP2iL-18">
          <mxGeometry width="50" height="50" relative="1" as="geometry">
            <mxPoint x="130" y="350" as="sourcePoint" />
            <mxPoint x="220" y="260" as="targetPoint" />
          </mxGeometry>
        </mxCell>
        <mxCell id="k1RtUFctcX0_6oIIP2iL-30" value="登陆" style="edgeLabel;html=1;align=center;verticalAlign=middle;resizable=0;points=[];" vertex="1" connectable="0" parent="k1RtUFctcX0_6oIIP2iL-26">
          <mxGeometry x="-0.2417" y="-1" relative="1" as="geometry">
            <mxPoint as="offset" />
          </mxGeometry>
        </mxCell>
        <mxCell id="k1RtUFctcX0_6oIIP2iL-27" value="" style="endArrow=classic;html=1;exitX=1;exitY=0.5;exitDx=0;exitDy=0;entryX=0;entryY=0.5;entryDx=0;entryDy=0;" edge="1" parent="1" source="k1RtUFctcX0_6oIIP2iL-19" target="k1RtUFctcX0_6oIIP2iL-1">
          <mxGeometry width="50" height="50" relative="1" as="geometry">
            <mxPoint x="140" y="380" as="sourcePoint" />
            <mxPoint x="190" y="330" as="targetPoint" />
          </mxGeometry>
        </mxCell>
        <mxCell id="k1RtUFctcX0_6oIIP2iL-31" value="登陆" style="edgeLabel;html=1;align=center;verticalAlign=middle;resizable=0;points=[];" vertex="1" connectable="0" parent="k1RtUFctcX0_6oIIP2iL-27">
          <mxGeometry x="-0.1721" relative="1" as="geometry">
            <mxPoint as="offset" />
          </mxGeometry>
        </mxCell>
        <mxCell id="k1RtUFctcX0_6oIIP2iL-33" value="" style="endArrow=classic;html=1;entryX=1;entryY=0.75;entryDx=0;entryDy=0;" edge="1" parent="1" target="k1RtUFctcX0_6oIIP2iL-2">
          <mxGeometry width="50" height="50" relative="1" as="geometry">
            <mxPoint x="650" y="270" as="sourcePoint" />
            <mxPoint x="600" y="300" as="targetPoint" />
          </mxGeometry>
        </mxCell>
        <mxCell id="k1RtUFctcX0_6oIIP2iL-34" value="" style="endArrow=classic;html=1;exitX=0;exitY=0.75;exitDx=0;exitDy=0;entryX=1;entryY=0.75;entryDx=0;entryDy=0;" edge="1" parent="1" source="k1RtUFctcX0_6oIIP2iL-2" target="k1RtUFctcX0_6oIIP2iL-1">
          <mxGeometry width="50" height="50" relative="1" as="geometry">
            <mxPoint x="320" y="260" as="sourcePoint" />
            <mxPoint x="370" y="210" as="targetPoint" />
          </mxGeometry>
        </mxCell>
        <mxCell id="k1RtUFctcX0_6oIIP2iL-35" value="存取数据" style="text;html=1;align=center;verticalAlign=middle;resizable=0;points=[];autosize=1;strokeColor=none;" vertex="1" parent="1">
          <mxGeometry x="548" y="240" width="60" height="20" as="geometry" />
        </mxCell>
        <mxCell id="k1RtUFctcX0_6oIIP2iL-36" value="游戏" style="endArrow=classic;html=1;entryX=0.25;entryY=0;entryDx=0;entryDy=0;exitX=1;exitY=0.75;exitDx=0;exitDy=0;" edge="1" parent="1" source="k1RtUFctcX0_6oIIP2iL-18" target="k1RtUFctcX0_6oIIP2iL-6">
          <mxGeometry width="50" height="50" relative="1" as="geometry">
            <mxPoint x="170" y="320" as="sourcePoint" />
            <mxPoint x="220" y="270" as="targetPoint" />
          </mxGeometry>
        </mxCell>
        <mxCell id="k1RtUFctcX0_6oIIP2iL-37" value="" style="endArrow=classic;html=1;exitX=1;exitY=0.75;exitDx=0;exitDy=0;entryX=0.5;entryY=0;entryDx=0;entryDy=0;" edge="1" parent="1" source="k1RtUFctcX0_6oIIP2iL-17" target="k1RtUFctcX0_6oIIP2iL-7">
          <mxGeometry width="50" height="50" relative="1" as="geometry">
            <mxPoint x="160" y="490" as="sourcePoint" />
            <mxPoint x="210" y="440" as="targetPoint" />
          </mxGeometry>
        </mxCell>
        <mxCell id="k1RtUFctcX0_6oIIP2iL-40" value="游戏" style="edgeLabel;html=1;align=center;verticalAlign=middle;resizable=0;points=[];" vertex="1" connectable="0" parent="k1RtUFctcX0_6oIIP2iL-37">
          <mxGeometry x="-0.1206" y="1" relative="1" as="geometry">
            <mxPoint as="offset" />
          </mxGeometry>
        </mxCell>
        <mxCell id="k1RtUFctcX0_6oIIP2iL-38" value="" style="endArrow=classic;html=1;exitX=1;exitY=0.75;exitDx=0;exitDy=0;entryX=0.5;entryY=0;entryDx=0;entryDy=0;" edge="1" parent="1" source="k1RtUFctcX0_6oIIP2iL-16" target="k1RtUFctcX0_6oIIP2iL-12">
          <mxGeometry width="50" height="50" relative="1" as="geometry">
            <mxPoint x="130" y="250" as="sourcePoint" />
            <mxPoint x="180" y="200" as="targetPoint" />
          </mxGeometry>
        </mxCell>
        <mxCell id="k1RtUFctcX0_6oIIP2iL-39" value="游戏" style="edgeLabel;html=1;align=center;verticalAlign=middle;resizable=0;points=[];" vertex="1" connectable="0" parent="k1RtUFctcX0_6oIIP2iL-38">
          <mxGeometry x="-0.2804" y="1" relative="1" as="geometry">
            <mxPoint as="offset" />
          </mxGeometry>
        </mxCell>
      </root>
    </mxGraphModel>
  </diagram>
</mxfile>
